{
  "accessors": [
    {
      "bufferView": 2,
      "componentType": 5126,
      "count": 2063,
      "max": [
        0.1603119969367981,
        0.0008549997583031654,
        0.07263900339603424
      ],
      "min": [
        -0.1603119969367981,
        -0.027840999886393547,
        -0.0658629983663559
      ],
      "type": "VEC3"
    },
    {
      "bufferView": 2,
      "byteOffset": 24756,
      "componentType": 5126,
      "count": 2063,
      "max": [
        1.0,
        1.0,
        1.0
      ],
      "min": [
        -1.0,
        -1.0,
        -1.0
      ],
      "type": "VEC3"
    },
    {
      "bufferView": 1,
      "componentType": 5126,
      "count": 2063,
      "max": [
        0.9979310035705566,
        0.9862160086631775
      ],
      "min": [
        0.0018870000494644046,
        0.0012789999600499868
      ],
      "type": "VEC2"
    },
    {
      "bufferView": 1,
      "byteOffset": 16504,
      "componentType": 5126,
      "count": 2063,
      "max": [
        0.9979310035705566,
        0.9862160086631775
      ],
      "min": [
        0.0018870000494644046,
        0.0012789999600499868
      ],
      "type": "VEC2"
    },
    {
      "bufferView": 1,
      "byteOffset": 33008,
      "componentType": 5126,
      "count": 2063,
      "max": [
        0.9979310035705566,
        0.9862160086631775
      ],
      "min": [
        0.0018870000494644046,
        0.0012789999600499868
      ],
      "type": "VEC2"
    },
    {
      "bufferView": 1,
      "byteOffset": 49512,
      "componentType": 5126,
      "count": 2063,
      "max": [
        0.9979310035705566,
        0.9862160086631775
      ],
      "min": [
        0.0018870000494644046,
        0.0012789999600499868
      ],
      "type": "VEC2"
    },
    {
      "bufferView": 1,
      "byteOffset": 66016,
      "componentType": 5126,
      "count": 2063,
      "max": [
        0.9979310035705566,
        0.9862160086631775
      ],
      "min": [
        0.0018870000494644046,
        0.0012789999600499868
      ],
      "type": "VEC2"
    },
    {
      "bufferView": 1,
      "byteOffset": 82520,
      "componentType": 5126,
      "count": 2063,
      "max": [
        0.9979310035705566,
        0.9862160086631775
      ],
      "min": [
        0.0018870000494644046,
        0.0012789999600499868
      ],
      "type": "VEC2"
    },
    {
      "bufferView": 1,
      "byteOffset": 99024,
      "componentType": 5126,
      "count": 2063,
      "max": [
        0.9979310035705566,
        0.9862160086631775
      ],
      "min": [
        0.0018870000494644046,
        0.0012789999600499868
      ],
      "type": "VEC2"
    },
    {
      "bufferView": 1,
      "byteOffset": 115528,
      "componentType": 5126,
      "count": 2063,
      "max": [
        0.9979310035705566,
        0.9862160086631775
      ],
      "min": [
        0.0018870000494644046,
        0.0012789999600499868
      ],
      "type": "VEC2"
    },
    {
      "bufferView": 1,
      "byteOffset": 132032,
      "componentType": 5126,
      "count": 2063,
      "max": [
        0.9979310035705566,
        0.9862160086631775
      ],
      "min": [
        0.0018870000494644046,
        0.0012789999600499868
      ],
      "type": "VEC2"
    },
    {
      "bufferView": 1,
      "byteOffset": 148536,
      "componentType": 5126,
      "count": 2063,
      "max": [
        0.9979310035705566,
        0.9862160086631775
      ],
      "min": [
        0.0018870000494644046,
        0.0012789999600499868
      ],
      "type": "VEC2"
    },
    {
      "bufferView": 0,
      "componentType": 5125,
      "count": 5556,
      "type": "SCALAR"
    },
    {
      "bufferView": 2,
      "byteOffset": 49512,
      "componentType": 5126,
      "count": 40,
      "max": [
        0.15911099314689636,
        -0.016054000705480576,
        -0.0022450005635619164
      ],
      "min": [
        -0.15911099314689636,
        -0.027840999886393547,
        -0.06466200202703476
      ],
      "type": "VEC3"
    },
    {
      "bufferView": 2,
      "byteOffset": 49992,
      "componentType": 5126,
      "count": 40,
      "max": [
        1.0,
        9.999999747378752e-05,
        9.999999747378752e-05
      ],
      "min": [
        -1.0,
        -1.0,
        -0.9957959651947021
      ],
      "type": "VEC3"
    },
    {
      "bufferView": 1,
      "byteOffset": 165040,
      "componentType": 5126,
      "count": 40,
      "max": [
        0.3584449887275696,
        0.727940022945404
      ],
      "min": [
        0.1509460061788559,
        0.011516000144183636
      ],
      "type": "VEC2"
    },
    {
      "bufferView": 1,
      "byteOffset": 165360,
      "componentType": 5126,
      "count": 40,
      "max": [
        0.3584449887275696,
        0.727940022945404
      ],
      "min": [
        0.1509460061788559,
        0.011516000144183636
      ],
      "type": "VEC2"
    },
    {
      "bufferView": 1,
      "byteOffset": 165680,
      "componentType": 5126,
      "count": 40,
      "max": [
        0.3584449887275696,
        0.727940022945404
      ],
      "min": [
        0.1509460061788559,
        0.011516000144183636
      ],
      "type": "VEC2"
    },
    {
      "bufferView": 1,
      "byteOffset": 166000,
      "componentType": 5126,
      "count": 40,
      "max": [
        0.3584449887275696,
        0.727940022945404
      ],
      "min": [
        0.1509460061788559,
        0.011516000144183636
      ],
      "type": "VEC2"
    },
    {
      "bufferView": 1,
      "byteOffset": 166320,
      "componentType": 5126,
      "count": 40,
      "max": [
        0.3584449887275696,
        0.727940022945404
      ],
      "min": [
        0.1509460061788559,
        0.011516000144183636
      ],
      "type": "VEC2"
    },
    {
      "bufferView": 1,
      "byteOffset": 166640,
      "componentType": 5126,
      "count": 40,
      "max": [
        0.3584449887275696,
        0.727940022945404
      ],
      "min": [
        0.1509460061788559,
        0.011516000144183636
      ],
      "type": "VEC2"
    },
    {
      "bufferView": 1,
      "byteOffset": 166960,
      "componentType": 5126,
      "count": 40,
      "max": [
        0.3584449887275696,
        0.727940022945404
      ],
      "min": [
        0.1509460061788559,
        0.011516000144183636
      ],
      "type": "VEC2"
    },
    {
      "bufferView": 1,
      "byteOffset": 167280,
      "componentType": 5126,
      "count": 40,
      "max": [
        0.3584449887275696,
        0.727940022945404
      ],
      "min": [
        0.1509460061788559,
        0.011516000144183636
      ],
      "type": "VEC2"
    },
    {
      "bufferView": 1,
      "byteOffset": 167600,
      "componentType": 5126,
      "count": 40,
      "max": [
        0.3584449887275696,
        0.727940022945404
      ],
      "min": [
        0.1509460061788559,
        0.011516000144183636
      ],
      "type": "VEC2"
    },
    {
      "bufferView": 1,
      "byteOffset": 167920,
      "componentType": 5126,
      "count": 40,
      "max": [
        0.3584449887275696,
        0.727940022945404
      ],
      "min": [
        0.1509460061788559,
        0.011516000144183636
      ],
      "type": "VEC2"
    },
    {
      "bufferView": 0,
      "byteOffset": 22224,
      "componentType": 5125,
      "count": 96,
      "type": "SCALAR"
    },
    {
      "bufferView": 2,
      "byteOffset": 50472,
      "componentType": 5126,
      "count": 124,
      "max": [
        0.1603119969367981,
        -0.005994999781250954,
        0.044863998889923096
      ],
      "min": [
        0.13633500039577484,
        -0.027840999886393547,
        0.030160000547766685
      ],
      "type": "VEC3"
    },
    {
      "bufferView": 2,
      "byteOffset": 51960,
      "componentType": 5126,
      "count": 124,
      "max": [
        1.0,
        0.997361421585083,
        0.7348242998123169
      ],
      "min": [
        -0.7066846489906311,
        -1.0,
        -0.7075038552284241
      ],
      "type": "VEC3"
    },
    {
      "bufferView": 1,
      "byteOffset": 168240,
      "componentType": 5126,
      "count": 124,
      "max": [
        0.2910880148410797,
        0.16939899325370789
      ],
      "min": [
        0.24852800369262695,
        0.0115130003541708
      ],
      "type": "VEC2"
    },
    {
      "bufferView": 1,
      "byteOffset": 169232,
      "componentType": 5126,
      "count": 124,
      "max": [
        0.2910880148410797,
        0.16939899325370789
      ],
      "min": [
        0.24852800369262695,
        0.0115130003541708
      ],
      "type": "VEC2"
    },
    {
      "bufferView": 1,
      "byteOffset": 170224,
      "componentType": 5126,
      "count": 124,
      "max": [
        0.2910880148410797,
        0.16939899325370789
      ],
      "min": [
        0.24852800369262695,
        0.0115130003541708
      ],
      "type": "VEC2"
    },
    {
      "bufferView": 1,
      "byteOffset": 171216,
      "componentType": 5126,
      "count": 124,
      "max": [
        0.2910880148410797,
        0.16939899325370789
      ],
      "min": [
        0.24852800369262695,
        0.0115130003541708
      ],
      "type": "VEC2"
    },
    {
      "bufferView": 1,
      "byteOffset": 172208,
      "componentType": 5126,
      "count": 124,
      "max": [
        0.2910880148410797,
        0.16939899325370789
      ],
      "min": [
        0.24852800369262695,
        0.0115130003541708
      ],
      "type": "VEC2"
    },
    {
      "bufferView": 1,
      "byteOffset": 173200,
      "componentType": 5126,
      "count": 124,
      "max": [
        0.2910880148410797,
        0.16939899325370789
      ],
      "min": [
        0.24852800369262695,
        0.0115130003541708
      ],
      "type": "VEC2"
    },
    {
      "bufferView": 1,
      "byteOffset": 174192,
      "componentType": 5126,
      "count": 124,
      "max": [
        0.2910880148410797,
        0.16939899325370789
      ],
      "min": [
        0.24852800369262695,
        0.0115130003541708
      ],
      "type": "VEC2"
    },
    {
      "bufferView": 1,
      "byteOffset": 175184,
      "componentType": 5126,
      "count": 124,
      "max": [
        0.2910880148410797,
        0.16939899325370789
      ],
      "min": [
        0.24852800369262695,
        0.0115130003541708
      ],
      "type": "VEC2"
    },
    {
      "bufferView": 1,
      "byteOffset": 176176,
      "componentType": 5126,
      "count": 124,
      "max": [
        0.2910880148410797,
        0.16939899325370789
      ],
      "min": [
        0.24852800369262695,
        0.0115130003541708
      ],
      "type": "VEC2"
    },
    {
      "bufferView": 1,
      "byteOffset": 177168,
      "componentType": 5126,
      "count": 124,
      "max": [
        0.2910880148410797,
        0.16939899325370789
      ],
      "min": [
        0.24852800369262695,
        0.0115130003541708
      ],
      "type": "VEC2"
    },
    {
      "bufferView": 0,
      "byteOffset": 22608,
      "componentType": 5125,
      "count": 330,
      "type": "SCALAR"
    },
    {
      "bufferView": 2,
      "byteOffset": 53448,
      "componentType": 5126,
      "count": 8062,
      "max": [
        0.1531749963760376,
        0.008199000731110573,
        0.06547200679779053
      ],
      "min": [
        -0.15308700501918793,
        -0.012292000465095043,
        -0.05770299956202507
      ],
      "type": "VEC3"
    },
    {
      "bufferView": 2,
      "byteOffset": 150192,
      "componentType": 5126,
      "count": 8062,
      "max": [
        1.0,
        0.998125433921814,
        0.9971305131912231
      ],
      "min": [
        -1.0,
        -0.07570231705904007,
        -0.9971305131912231
      ],
      "type": "VEC3"
    },
    {
      "bufferView": 1,
      "byteOffset": 178160,
      "componentType": 5126,
      "count": 8062,
      "max": [
        0.9752209782600403,
        0.98192298412323
      ],
      "min": [
        0.0012789999600499868,
        0.0020349998958408833
      ],
      "type": "VEC2"
    },
    {
      "bufferView": 1,
      "byteOffset": 242656,
      "componentType": 5126,
      "count": 8062,
      "max": [
        0.9752209782600403,
        0.98192298412323
      ],
      "min": [
        0.0012789999600499868,
        0.0020349998958408833
      ],
      "type": "VEC2"
    },
    {
      "bufferView": 1,
      "byteOffset": 307152,
      "componentType": 5126,
      "count": 8062,
      "max": [
        0.9752209782600403,
        0.98192298412323
      ],
      "min": [
        0.0012789999600499868,
        0.0020349998958408833
      ],
      "type": "VEC2"
    },
    {
      "bufferView": 1,
      "byteOffset": 371648,
      "componentType": 5126,
      "count": 8062,
      "max": [
        0.9752209782600403,
        0.98192298412323
      ],
      "min": [
        0.0012789999600499868,
        0.0020349998958408833
      ],
      "type": "VEC2"
    },
    {
      "bufferView": 1,
      "byteOffset": 436144,
      "componentType": 5126,
      "count": 8062,
      "max": [
        0.9752209782600403,
        0.98192298412323
      ],
      "min": [
        0.0012789999600499868,
        0.0020349998958408833
      ],
      "type": "VEC2"
    },
    {
      "bufferView": 1,
      "byteOffset": 500640,
      "componentType": 5126,
      "count": 8062,
      "max": [
        0.9752209782600403,
        0.98192298412323
      ],
      "min": [
        0.0012789999600499868,
        0.0020349998958408833
      ],
      "type": "VEC2"
    },
    {
      "bufferView": 1,
      "byteOffset": 565136,
      "componentType": 5126,
      "count": 8062,
      "max": [
        0.9752209782600403,
        0.98192298412323
      ],
      "min": [
        0.0012789999600499868,
        0.0020349998958408833
      ],
      "type": "VEC2"
    },
    {
      "bufferView": 1,
      "byteOffset": 629632,
      "componentType": 5126,
      "count": 8062,
      "max": [
        0.9752209782600403,
        0.98192298412323
      ],
      "min": [
        0.0012789999600499868,
        0.0020349998958408833
      ],
      "type": "VEC2"
    },
    {
      "bufferView": 1,
      "byteOffset": 694128,
      "componentType": 5126,
      "count": 8062,
      "max": [
        0.9752209782600403,
        0.98192298412323
      ],
      "min": [
        0.0012789999600499868,
        0.0020349998958408833
      ],
      "type": "VEC2"
    },
    {
      "bufferView": 1,
      "byteOffset": 758624,
      "componentType": 5126,
      "count": 8062,
      "max": [
        0.9752209782600403,
        0.98192298412323
      ],
      "min": [
        0.0012789999600499868,
        0.0020349998958408833
      ],
      "type": "VEC2"
    },
    {
      "bufferView": 0,
      "byteOffset": 23928,
      "componentType": 5125,
      "count": 34920,
      "type": "SCALAR"
    }
  ],
  "asset": {
    "extras": {
      "author": "Michael V (https://sketchfab.com/bossdeff)",
      "license": "CC-BY-4.0 (http://creativecommons.org/licenses/by/4.0/)",
      "source": "https://sketchfab.com/3d-models/custom-keyboard-a848df4a6f9147e3b0dd03ddeb8a5c87",
      "title": "Custom Keyboard"
    },
    "generator": "Sketchfab-16.59.0",
    "version": "2.0"
  },
  "bufferViews": [
    {
      "buffer": 0,
      "byteLength": 163608,
      "name": "floatBufferViews",
      "target": 34963
    },
    {
      "buffer": 0,
      "byteLength": 823120,
      "byteOffset": 163608,
      "byteStride": 8,
      "name": "floatBufferViews",
      "target": 34962
    },
    {
      "buffer": 0,
      "byteLength": 246936,
      "byteOffset": 986728,
      "byteStride": 12,
      "name": "floatBufferViews",
      "target": 34962
    }
  ],
  "buffers": [
    {
      "byteLength": 1233664,
      "uri": "scene.bin"
    }
  ],
  "extensionsUsed": [
    "KHR_materials_emissive_strength"
  ],
  "images": [
    {
      "uri": "textures/DefaultMaterial_baseColor.png"
    },
    {
      "uri": "textures/DefaultMaterial_metallicRoughness.png"
    },
    {
      "uri": "textures/DefaultMaterial_emissive.png"
    }
  ],
  "materials": [
    {
      "doubleSided": true,
      "emissiveFactor": [
        1.0,
        1.0,
        1.0
      ],
      "emissiveTexture": {
        "index": 2
      },
      "extensions": {
        "KHR_materials_emissive_strength": {
          "emissiveStrength": 3.287671232876712
        }
      },
      "name": "DefaultMaterial",
      "pbrMetallicRoughness": {
        "baseColorTexture": {
          "index": 0
        },
        "metallicRoughnessTexture": {
          "index": 1
        }
      }
    }
  ],
  "meshes": [
    {
      "name": "Keyboard_Base_DefaultMaterial_0",
      "primitives": [
        {
          "attributes": {
            "NORMAL": 1,
            "POSITION": 0,
            "TEXCOORD_0": 2,
            "TEXCOORD_1": 3,
            "TEXCOORD_2": 4,
            "TEXCOORD_3": 5,
            "TEXCOORD_4": 6,
            "TEXCOORD_5": 7,
            "TEXCOORD_6": 8,
            "TEXCOORD_7": 9,
            "TEXCOORD_8": 10,
            "TEXCOORD_9": 11
          },
          "indices": 12,
          "material": 0,
          "mode": 4
        }
      ]
    },
    {
      "name": "Slice_DefaultMaterial_0",
      "primitives": [
        {
          "attributes": {
            "NORMAL": 14,
            "POSITION": 13,
            "TEXCOORD_0": 15,
            "TEXCOORD_1": 16,
            "TEXCOORD_2": 17,
            "TEXCOORD_3": 18,
            "TEXCOORD_4": 19,
            "TEXCOORD_5": 20,
            "TEXCOORD_6": 21,
            "TEXCOORD_7": 22,
            "TEXCOORD_8": 23,
            "TEXCOORD_9": 24
          },
          "indices": 25,
          "material": 0,
          "mode": 4
        }
      ]
    },
    {
      "name": "Slice.001_DefaultMaterial_0",
      "primitives": [
        {
          "attributes": {
            "NORMAL": 27,
            "POSITION": 26,
            "TEXCOORD_0": 28,
            "TEXCOORD_1": 29,
            "TEXCOORD_2": 30,
            "TEXCOORD_3": 31,
            "TEXCOORD_4": 32,
            "TEXCOORD_5": 33,
            "TEXCOORD_6": 34,
            "TEXCOORD_7": 35,
            "TEXCOORD_8": 36,
            "TEXCOORD_9": 37
          },
          "indices": 38,
          "material": 0,
          "mode": 4
        }
      ]
    },
    {
      "name": "Keys_S_DefaultMaterial_0",
      "primitives": [
        {
          "attributes": {
            "NORMAL": 40,
            "POSITION": 39,
            "TEXCOORD_0": 41,
            "TEXCOORD_1": 42,
            "TEXCOORD_2": 43,
            "TEXCOORD_3": 44,
            "TEXCOORD_4": 45,
            "TEXCOORD_5": 46,
            "TEXCOORD_6": 47,
            "TEXCOORD_7": 48,
            "TEXCOORD_8": 49,
            "TEXCOORD_9": 50
          },
          "indices": 51,
          "material": 0,
          "mode": 4
        }
      ]
    }
  ],
  "nodes": [
    {
      "children": [
        1
      ],
      "matrix": [
        1.0,
        0.0,
        0.0,
        0.0,
        0.0,
        3.828568672208042e-16,
        -1.0,
        0.0,
        0.0,
        1.0,
        3.828568672208042e-16,
        0.0,
        0.0,
        0.0,
        0.0,
        1.0
      ],
      "name": "Sketchfab_model"
    },
    {
      "children": [
        2
      ],
      "matrix": [
        0.009999999776482582,
        0.0,
        0.0,
        0.0,
        0.0,
        0.0,
        0.009999999776482582,
        0.0,
        0.0,
        -0.009999999776482582,
        0.0,
        0.0,
        0.0,
        0.0,
        0.0,
        1.0
      ],
      "name": "aed992fba293445a88612d0e4a6fa584.fbx"
    },
    {
      "children": [
        3,
        5,
        7,
        9
      ],
      "name": "RootNode"
    },
    {
      "children": [
        4
      ],
      "name": "Keyboard_Base"
    },
    {
      "mesh": 0,
      "name": "Keyboard_Base_DefaultMaterial_0"
    },
    {
      "children": [
        6
      ],
      "name": "Slice"
    },
    {
      "mesh": 1,
      "name": "Slice_DefaultMaterial_0"
    },
    {
      "children": [
        8
      ],
      "name": "Slice.001"
    },
    {
      "mesh": 2,
      "name": "Slice.001_DefaultMaterial_0"
    },
    {
      "children": [
        10
      ],
      "name": "Keys_S"
    },
    {
      "mesh": 3,
      "name": "Keys_S_DefaultMaterial_0"
    }
  ],
  "samplers": [
    {
      "magFilter": 9729,
      "minFilter": 9987,
      "wrapS": 10497,
      "wrapT": 10497
    }
  ],
  "scene": 0,
  "scenes": [
    {
      "name": "Sketchfab_Scene",
      "nodes": [
        0
      ]
    }
  ],
  "textures": [
    {
      "sampler": 0,
      "source": 0
    },
    {
      "sampler": 0,
      "source": 1
    },
    {
      "sampler": 0,
      "source": 2
    }
  ]
}
